<?xml version="1.0" encoding="iso-8859-1"?>
<!-- Generator: Adobe Illustrator 19.0.0, SVG Export Plug-In . SVG Version: 6.00 Build 0)  -->
<svg version="1.1" id="Layer_1" xmlns="http://www.w3.org/2000/svg" xmlns:xlink="http://www.w3.org/1999/xlink" x="0px" y="0px"
	 viewBox="0 0 473.231 473.231" style="enable-background:new 0 0 473.231 473.231;" xml:space="preserve">
<g>
	<path d="M62.18,216.153v15c0,36.075,18.765,69.677,52.839,94.614c29.069,21.275,66.472,34.034,106.597,36.587v20.876h-52.172
		l-30,90h194.344l-30-90h-52.172v-20.876c40.125-2.553,77.527-15.313,106.597-36.587c34.074-24.938,52.839-58.539,52.839-94.614v-15
		H62.18z M292.165,443.231H181.067l10-30h91.098L292.165,443.231z M340.495,301.559c-27.562,20.172-64.454,31.281-103.879,31.281
		s-76.317-11.109-103.879-31.281c-21.117-15.455-34.573-34.73-38.973-55.405h285.703
		C375.068,266.828,361.612,286.104,340.495,301.559z"/>
	<path d="M342.183,113.632c-58.21-58.21-152.925-58.21-211.135,0l21.213,21.213c46.514-46.513,122.195-46.513,168.709,0
		L342.183,113.632z"/>
	<path d="M236.616,30c50.625,0,98.161,19.656,133.852,55.347l21.213-21.213C350.323,22.776,295.253,0,236.616,0
		S122.908,22.776,81.551,64.134l21.213,21.213C138.455,49.656,185.991,30,236.616,30z"/>
	<path d="M180.546,163.129l21.213,21.213c9.292-9.291,21.67-14.408,34.857-14.408s25.565,5.117,34.857,14.408l21.213-21.213
		c-14.958-14.958-34.87-23.195-56.07-23.195S195.503,148.171,180.546,163.129z"/>
</g>
<g>
</g>
<g>
</g>
<g>
</g>
<g>
</g>
<g>
</g>
<g>
</g>
<g>
</g>
<g>
</g>
<g>
</g>
<g>
</g>
<g>
</g>
<g>
</g>
<g>
</g>
<g>
</g>
<g>
</g>
</svg>
