<?xml version="1.0" encoding="iso-8859-1"?>
<!-- Generator: Adobe Illustrator 19.0.0, SVG Export Plug-In . SVG Version: 6.00 Build 0)  -->
<svg version="1.1" id="Layer_1" xmlns="http://www.w3.org/2000/svg" xmlns:xlink="http://www.w3.org/1999/xlink" x="0px" y="0px"
	 viewBox="0 0 512 512" style="enable-background:new 0 0 512 512;" xml:space="preserve">
<circle style="fill:#2D4452;" cx="256" cy="256" r="256"/>
<polygon style="fill:#CCCCCC;" points="260,364 252,364 248,292 264,292 "/>
<g>
	<rect x="324" y="200" style="fill:#E6E6E6;" width="28" height="12"/>
	<path style="fill:#E6E6E6;" d="M328,120v160c0,8.8-7.2,16-16,16H200c-8.8,0-16-7.2-16-16V120H328z"/>
</g>
<path style="fill:#CCCCCC;" d="M312,120v160c0,8.8-7.2,16-16,16h16c8.8,0,16-7.2,16-16V120H312z"/>
<path style="fill:#CC584C;" d="M184,120c0-39.764,32.236-72,72-72s72,32.236,72,72H184z"/>
<path style="fill:#BF5347;" d="M256,48c-2.708,0-5.372,0.18-8,0.468c35.996,3.984,64,34.468,64,71.532h16
	C328,80.236,295.764,48,256,48z"/>
<g>
	<circle style="fill:#F5F5F5;" cx="256" cy="364" r="8"/>
	<path style="fill:#F5F5F5;" d="M256,388c-6.412,0-12.436-2.496-16.972-7.032c-1.564-1.564-1.564-4.092,0-5.656s4.092-1.564,5.656,0
		c6.048,6.048,16.584,6.048,22.628,0c1.564-1.564,4.092-1.564,5.656,0s1.564,4.092,0,5.656C268.436,385.504,262.416,388,256,388z"/>
	<path style="fill:#F5F5F5;" d="M256,403.98c-10.244,0-20.484-3.904-28.284-11.7c-1.564-1.564-1.564-4.088,0-5.652
		c1.564-1.568,4.092-1.568,5.656,0c12.472,12.472,32.772,12.472,45.252,0c1.564-1.568,4.092-1.568,5.656,0
		c1.564,1.564,1.564,4.088,0,5.652C276.488,400.084,266.244,403.98,256,403.98z"/>
</g>
<path style="fill:#2995CC;" d="M256,512c44.312,0,85.988-11.264,122.336-31.08C348.988,446.124,305.084,424,256,424
	s-92.988,22.124-122.336,56.92C170.012,500.736,211.688,512,256,512z"/>
<path style="fill:#263740;" d="M256,272c-22.056,0-40-17.944-40-40s17.944-40,40-40s40,17.944,40,40S278.056,272,256,272z"/>
<circle style="fill:#96E6D9;" cx="256" cy="232" r="32"/>
<rect x="160" y="200" style="fill:#E6E6E6;" width="28" height="12"/>
<g>
	<path style="fill:#70CCBD;" d="M207.836,431.392c-29.016,9.148-54.44,26.36-73.696,48.98c0.068,0.308,0.14,0.612,0.212,0.92
		c23.504,12.72,49.248,21.8,76.456,26.644C213.392,504.392,216,500.848,216,496c0-20-12-24-16-36
		C197.008,451.024,202.972,442.044,207.836,431.392z"/>
	<path style="fill:#70CCBD;" d="M338.852,447.092C327.728,456.688,315.096,470.724,312,480c-4,12-24,12-24,12s-28,0-28,4
		c0,2.036,1.036,9.252,2.056,15.848c42.008-0.98,81.532-12,116.196-30.876C367.048,467.676,353.796,456.16,338.852,447.092z"/>
</g>
<path style="fill:#CCCCCC;" d="M220,344c0-19.884,16.116-36,36-36s36,16.116,36,36H220z"/>
<path style="fill:#B3B3B3;" d="M256,308c-1.352,0-2.684,0.084-4,0.236c18,1.992,32,17.244,32,35.764h8
	C292,324.116,275.884,308,256,308z"/>
<path style="fill:#F5F5F5;" d="M348,248c0,8.8,7.2,16,16,16h80c8.8,0,16-7.2,16-16v-88c0-8.8-7.2-16-16-16h-80c-8.8,0-16,7.2-16,16
	V248z"/>
<g>
	<rect x="420" y="160" style="fill:#B3B3B3;" width="24" height="24"/>
	<rect x="392" y="160" style="fill:#B3B3B3;" width="24" height="24"/>
	<rect x="364" y="160" style="fill:#B3B3B3;" width="24" height="24"/>
	<rect x="420" y="192" style="fill:#B3B3B3;" width="24" height="24"/>
	<rect x="392" y="192" style="fill:#B3B3B3;" width="24" height="24"/>
	<rect x="364" y="192" style="fill:#B3B3B3;" width="24" height="24"/>
	<rect x="420" y="224" style="fill:#B3B3B3;" width="24" height="24"/>
	<rect x="392" y="224" style="fill:#B3B3B3;" width="24" height="24"/>
	<rect x="364" y="224" style="fill:#B3B3B3;" width="24" height="24"/>
</g>
<path style="fill:#F5F5F5;" d="M164,248c0,8.8-7.2,16-16,16H68c-8.8,0-16-7.2-16-16v-88c0-8.8,7.2-16,16-16h80c8.8,0,16,7.2,16,16
	V248z"/>
<g>
	<rect x="68" y="160" style="fill:#B3B3B3;" width="24" height="24"/>
	<rect x="96" y="160" style="fill:#B3B3B3;" width="24" height="24"/>
	<rect x="124" y="160" style="fill:#B3B3B3;" width="24" height="24"/>
	<rect x="68" y="192" style="fill:#B3B3B3;" width="24" height="24"/>
	<rect x="96" y="192" style="fill:#B3B3B3;" width="24" height="24"/>
	<rect x="124" y="192" style="fill:#B3B3B3;" width="24" height="24"/>
	<rect x="68" y="224" style="fill:#B3B3B3;" width="24" height="24"/>
	<rect x="96" y="224" style="fill:#B3B3B3;" width="24" height="24"/>
	<rect x="124" y="224" style="fill:#B3B3B3;" width="24" height="24"/>
</g>
<rect x="184" y="120" style="fill:#CCCCCC;" width="144" height="4"/>
<g>
</g>
<g>
</g>
<g>
</g>
<g>
</g>
<g>
</g>
<g>
</g>
<g>
</g>
<g>
</g>
<g>
</g>
<g>
</g>
<g>
</g>
<g>
</g>
<g>
</g>
<g>
</g>
<g>
</g>
</svg>
